# xmcd
#
# Track frame offsets:
#	150
#	15563
#	29356
#	48606
#	63224
#	80909
#	99162
#	116449
#	132988
#	148240
#	167746
#	192913
#
# Disc length: 2799 seconds
#
# Revision: 0
# Processed by: cddbd v1.5.2PL0 Copyright (c) Steve Scherf et al.
# Submitted via: EZCDAudioConverter 4.0.5.1
#
DISCID=a30aed0c
DTITLE=Dennis Hormes - Six String Therapy
DYEAR=2016
DGENRE=Blues Rock
TTITLE0=Six String Therapy
TTITLE1=Heart To Squeeze
TTITLE2=Living A Lie
TTITLE3=I Don't Care 'Bout You
TTITLE4=Fading
TTITLE5=Here 4 A Reason
TTITLE6=Do You Feel Alright?
TTITLE7=Going Down
TTITLE8=Set My Condition
TTITLE9=Moring Lights
TTITLE10=Stronger
TTITLE11=Cashing Up
EXTD=
EXTT0=
EXTT1=
EXTT2=
EXTT3=
EXTT4=
EXTT5=
EXTT6=
EXTT7=
EXTT8=
EXTT9=
EXTT10=
EXTT11=
PLAYORDER=
